# File created by Blade
# Date/Time:  Tue Jan 27 20:12:12 2015
#---------------------------------------------------------
:version 1.10
:name HOM
:units
  mass 1.0
  length 1.000000
  angle deg
:documentation
     Acclaim Skeleton File
:root
   axis xyz
   order TX TY TZ RX RY RZ
   position 0.000000 0.000000 0.000000
   orientation 0 0 0
:bonedata
   begin
      id 1
      name Spine_dum
      direction 0.000000 1.000000 0.000000
      length 6.116652
      axis 0.0 0.0 0.0 xyz
   end
   begin
      id 2
      name LeftUpLeg_dum
      direction 1.000000 0.000000 0.000000
      length 4.711765
      axis 0.0 0.0 0.0 xyz
   end
   begin
      id 3
      name RightUpLeg_dum
      direction -1.000000 0.000000 0.000000
      length 4.711765
      axis 0.0 0.0 0.0 xyz
   end
   begin
      id 4
      name Spine
      direction 0.000000 1.000000 0.000000
      length 0.000000
      axis 0.0 0.0 0.0 xyz
      dof rx ry rz
   end
   begin
      id 5
      name Spine_dum1
      direction 0.000000 1.000000 0.000000
      length 15.225563
      axis 0.0 0.0 0.0 xyz
   end
   begin
      id 6
      name Spine_dum2
      direction 0.000000 1.000000 0.000000
      length 8.977654
      axis 0.0 0.0 0.0 xyz
   end
   begin
      id 7
      name Spine_dum3
      direction 0.000000 1.000000 0.000000
      length 8.977654
      axis 0.0 0.0 0.0 xyz
   end
   begin
      id 8
      name Head
      direction 0.000000 1.000000 0.000000
      length 4.527550
      axis 0.0 0.0 0.0 xyz
      dof rx ry rz
   end
   begin
      id 9
      name LeftShoulder
      direction 1.000000 0.000000 0.000000
      length 7.110130
      axis 0.0 0.0 -90.0 xyz
      dof rx ry rz
   end
   begin
      id 10
      name LeftArm
      direction 1.000000 0.000000 0.000000
      length 10.398341
      axis 0.0 0.0 -90.0 xyz
      dof rx ry rz
   end
   begin
      id 11
      name LeftForeArm
      direction 1.000000 0.000000 0.000000
      length 8.888997
      axis 0.0 0.0 -90.0 xyz
      dof ry rz rx
   end
   begin
      id 12
      name LeftHand
      direction 0.000000 0.000000 0.000000
      length 0.000000
      axis 0.0 0.0 -90.0 xyz
      dof rx ry rz
   end
   begin
      id 13
      name LeftHand_dum1
      direction 0.000000 0.000000 0.000000
      length 0.000000
      axis 0.0 0.0 -90.0 xyz
   end
   begin
      id 14
      name LeftHand_dum2
      direction 1.000000 0.000000 0.000000
      length 3.937000
      axis 0.0 0.0 -90.0 xyz
   end
   begin
      id 15
      name LeftHandThumb1
      direction 0.000000 0.000000 1.000000
      length 3.937000
      axis 0.0 0.0 -90.0 xyz
      dof rx rz ry
   end
   begin
      id 16
      name RightShoulder
      direction -1.000000 0.000000 0.000000
      length 7.110130
      axis 0.0 0.0 90.0 xyz
      dof rx ry rz
   end
   begin
      id 17
      name RightArm
      direction -1.000000 0.000000 0.000000
      length 10.398341
      axis 0.0 0.0 90.0 xyz
      dof rx ry rz
   end
   begin
      id 18
      name RightForeArm
      direction -1.000000 0.000000 0.000000
      length 8.888997
      axis 0.0 0.0 90.0 xyz
      dof ry rz rx
   end
   begin
      id 19
      name RightHand
      direction 0.000000 0.000000 0.000000
      length 0.000000
      axis 0.0 0.0 90.0 xyz
      dof rx ry rz
   end
   begin
      id 20
      name RightHand_dum1
      direction 0.000000 0.000000 0.000000
      length 0.000000
      axis 0.0 0.0 90.0 xyz
   end
   begin
      id 21
      name RightHand_dum2
      direction -1.000000 0.000000 0.000000
      length 3.937000
      axis 0.0 0.0 90.0 xyz
   end
   begin
      id 22
      name RightHandThumb1
      direction 0.000000 0.000000 1.000000
      length 3.937000
      axis 0.0 0.0 90.0 xyz
      dof rx rz ry
   end
   begin
      id 23
      name LeftUpLeg
      direction 0.000000 -1.000000 0.000000
      length 15.510451
      axis 0.0 0.0 0.0 xyz
      dof rx ry rz
   end
   begin
      id 24
      name LeftLeg
      direction 0.000000 -1.000000 0.000000
      length 14.858061
      axis 0.0 0.0 0.0 xyz
      dof rx ry rz
   end
   begin
      id 25
      name LeftFoot
      direction 0.000000 -0.258819 0.965926
      length 5.128852
      axis 15.0 0.0 0.0 xyz
      dof rx ry rz
   end
   begin
      id 26
      name LeftToeBase
      direction 0.000000 0.000000 1.000000
      length 2.952750
      axis 0.0 0.0 0.0 xyz
      dof rx ry rz
   end
   begin
      id 27
      name RightUpLeg
      direction 0.000000 -1.000000 0.000000
      length 15.510451
      axis 0.0 0.0 0.0 xyz
      dof rx ry rz
   end
   begin
      id 28
      name RightLeg
      direction 0.000000 -1.000000 0.000000
      length 14.858061
      axis 0.0 0.0 0.0 xyz
      dof rx ry rz
   end
   begin
      id 29
      name RightFoot
      direction 0.000000 -0.258819 0.965926
      length 5.128852
      axis 15.0 0.0 0.0 xyz
      dof rx ry rz
   end
   begin
      id 30
      name RightToeBase
      direction 0.000000 0.000000 1.000000
      length 2.952750
      axis 0.0 0.0 0.0 xyz
      dof rx ry rz
   end
:hierarchy
   begin
      root Spine_dum LeftUpLeg_dum RightUpLeg_dum
      Spine_dum Spine
      LeftUpLeg_dum LeftUpLeg
      RightUpLeg_dum RightUpLeg
      Spine Spine_dum1 Spine_dum2 Spine_dum3
      Spine_dum1 Head
      Spine_dum2 LeftShoulder
      Spine_dum3 RightShoulder
      LeftShoulder LeftArm
      LeftArm LeftForeArm
      LeftForeArm LeftHand
      LeftHand LeftHand_dum1 LeftHand_dum2
      LeftHand_dum1 LeftHandThumb1
      RightShoulder RightArm
      RightArm RightForeArm
      RightForeArm RightHand
      RightHand RightHand_dum1 RightHand_dum2
      RightHand_dum1 RightHandThumb1
      LeftUpLeg LeftLeg
      LeftLeg LeftFoot
      LeftFoot LeftToeBase
      RightUpLeg RightLeg
      RightLeg RightFoot
      RightFoot RightToeBase
   end

# File created by Blade
# Date/Time:  Tue Jan 27 20:12:02 2015
# Frame Rate: 120.000 fps
#------------------------------------------------------
:FULLY-SPECIFIED
:DEGREES
449
root 8.516558 31.997110 -3.451545 5.416624 25.571377 4.937290
Spine 2.016861 -5.187154 -4.765298
Head 14.956802 -13.995814 -0.267901
LeftShoulder -15.903006 -0.220343 29.062976
LeftArm -16.195586 -40.203411 -68.843299
LeftForeArm -4.651318 0.000000 91.499264
LeftHand 15.485930 -0.000000 18.808118
LeftHandThumb1 -26.253704 0.000000 33.147579
RightShoulder -24.220857 -25.988785 -22.644325
RightArm 7.717066 -30.685275 87.691344
RightForeArm -23.616477 0.000000 103.562155
RightHand 17.475642 -0.000000 1.513738
RightHandThumb1 -24.326973 -0.000000 -32.862282
LeftUpLeg 2.759846 -17.274791 -11.074750
LeftLeg -3.262761 -0.000000 0.000000
LeftFoot -8.433711 6.969275 -13.032159
LeftToeBase 23.293080 -0.000000 -0.000000
RightUpLeg -13.055689 8.445260 3.520646
RightLeg 113.603126 -0.000000 -0.000000
RightFoot 21.054659 -20.820729 21.254667
RightToeBase 9.625876 -0.000000 -0.000000
450
root 8.519923 32.003226 -3.448563 5.367005 25.646033 4.867875
Spine 1.969154 -5.199955 -4.654111
Head 14.981992 -14.003503 -0.339358
LeftShoulder -15.889105 -0.296474 29.017540
LeftArm -16.232553 -40.138890 -68.802782
LeftForeArm -4.700283 0.000000 91.472008
LeftHand 15.494911 -0.000000 18.746479
LeftHandThumb1 -26.253704 0.000000 33.147579
RightShoulder -24.250869 -26.026681 -22.594074
RightArm 7.775648 -30.673669 87.622294
RightForeArm -23.673361 -0.000000 103.471203
RightHand 17.484458 -0.000000 1.490299
RightHandThumb1 -24.326973 -0.000000 -32.862282
LeftUpLeg 2.862134 -17.623538 -11.026208
LeftLeg -3.382920 -0.000000 0.000000
LeftFoot -8.413236 7.221355 -13.241998
LeftToeBase 23.172073 -0.000000 -0.000000
RightUpLeg -13.038398 8.096042 3.640329
RightLeg 116.158524 -0.000000 -0.000000
RightFoot 21.589794 -21.079694 21.431581
RightToeBase 10.234457 -0.000000 -0.000000
451
root 8.534464 32.011434 -3.444675 5.298696 25.871259 4.780159
Spine 1.923747 -5.400555 -4.454151
Head 15.007992 -13.946960 -0.471072
LeftShoulder -15.959501 -0.279303 28.909238
LeftArm -16.110622 -40.033687 -68.912701
LeftForeArm -4.521368 -0.000000 91.414025
LeftHand 15.485778 0.000000 18.809288
LeftHandThumb1 -26.253704 0.000000 33.147579
RightShoulder -24.247240 -26.054989 -22.604129
RightArm 7.853605 -30.656886 87.520736
RightForeArm -23.718377 0.000000 103.366391
RightHand 17.471678 0.000000 1.469065
RightHandThumb1 -24.326973 -0.000000 -32.862282
LeftUpLeg 2.850046 -17.577956 -10.974901
LeftLeg -3.253622 -0.000000 0.000000
LeftFoot -8.372400 7.074126 -13.080327
LeftToeBase 22.993462 -0.000000 -0.000000
RightUpLeg -12.920200 7.613444 3.757772
RightLeg 118.596429 -0.000000 -0.000000
RightFoot 21.965407 -21.306214 21.883172
RightToeBase 11.892486 -0.000000 -0.000000
452
root 8.543545 32.019124 -3.439708 5.234040 26.005306 4.700114
Spine 1.865430 -5.472237 -4.312508
Head 15.058790 -13.946629 -0.509208
LeftShoulder -15.947543 -0.282994 28.857539
LeftArm -16.059677 -39.975350 -68.986071
LeftForeArm -4.434066 -0.000000 91.368723
LeftHand 15.517935 -0.000000 18.780392
LeftHandThumb1 -26.253704 0.000000 33.147579
RightShoulder -24.183425 -25.620138 -22.843694
RightArm 7.332836 -30.697512 87.764377
RightForeArm -23.735788 -0.000000 103.217105
RightHand 17.474425 0.000000 1.398034
RightHandThumb1 -24.326973 -0.000000 -32.862282
LeftUpLeg 2.795893 -17.224285 -10.926872
LeftLeg -3.051505 -0.000000 0.000000
LeftFoot -8.310314 6.749086 -12.540783
LeftToeBase 22.867835 -0.000000 -0.000000
RightUpLeg -12.800219 7.203105 3.887873
RightLeg 120.994400 -0.000000 -0.000000
RightFoot 22.403155 -21.406370 21.938343
RightToeBase 14.098147 -0.000000 -0.000000
453
root 8.546028 32.026735 -3.434026 5.183224 26.047493 4.621409
Spine 1.796067 -5.428583 -4.208921
Head 15.099620 -13.978547 -0.522884
LeftShoulder -15.924155 -0.334061 28.817460
LeftArm -16.028340 -39.880444 -68.994388
LeftForeArm -4.410376 -0.000000 91.316545
LeftHand 15.587565 0.000000 18.824164
LeftHandThumb1 -26.253704 0.000000 33.147579
RightShoulder -24.201023 -25.606949 -22.834559
RightArm 7.313969 -30.690806 87.781011
RightForeArm -23.753963 -0.000000 103.086559
RightHand 17.555050 -0.000000 1.316376
RightHandThumb1 -24.326973 -0.000000 -32.862282
LeftUpLeg 2.812133 -17.167506 -10.868544
LeftLeg -3.028763 -0.000000 0.000000
LeftFoot -8.306615 6.705264 -12.495705
LeftToeBase 22.932761 -0.000000 -0.000000
RightUpLeg -12.697428 6.865929 4.039081
RightLeg 123.334130 -0.000000 -0.000000
RightFoot 22.972244 -21.452307 21.797721
RightToeBase 14.953096 -0.000000 -0.000000
454
root 8.551691 32.035233 -3.429286 5.126179 26.125014 4.537199
Spine 1.730791 -5.457845 -4.076945
Head 15.125017 -13.976974 -0.563798
LeftShoulder -15.952339 -0.256541 28.748467
LeftArm -15.829711 -39.893014 -69.144334
LeftForeArm -4.421700 -0.000000 91.216769
LeftHand 15.848519 -0.000000 18.454287
LeftHandThumb1 -26.253704 0.000000 33.147579
RightShoulder -24.211616 -25.897573 -22.683481
RightArm 7.675793 -30.615292 87.585419
RightForeArm -23.779826 -0.000000 103.026866
RightHand 17.568459 0.000000 1.365416
RightHandThumb1 -24.326973 -0.000000 -32.862282
LeftUpLeg 2.835426 -17.194045 -10.811504
LeftLeg -2.990670 -0.000000 0.000000
LeftFoot -8.255473 6.700489 -12.312115
LeftToeBase 22.697174 -0.000000 -0.000000
RightUpLeg -12.564578 6.489632 4.196400
RightLeg 125.587339 -0.000000 -0.000000
RightFoot 23.496820 -21.434706 21.880231
RightToeBase 14.862673 -0.000000 -0.000000
455
root 8.560218 32.044194 -3.424367 5.077252 26.227691 4.441870
Spine 1.652034 -5.484266 -3.920774
Head 15.134381 -13.997493 -0.591907
LeftShoulder -15.967729 -0.257390 28.680653
LeftArm -15.711837 -39.784385 -69.255492
LeftForeArm -4.217482 -0.000000 91.199721
LeftHand 15.644581 -0.000000 18.578340
LeftHandThumb1 -26.253704 0.000000 33.147579
RightShoulder -24.230957 -25.929843 -22.661291
RightArm 7.723082 -30.584337 87.528497
RightForeArm -23.737930 -0.000000 102.964176
RightHand 17.578466 -0.000000 1.433283
RightHandThumb1 -24.326973 -0.000000 -32.862282
LeftUpLeg 2.855813 -17.276381 -10.743579
LeftLeg -2.991575 -0.000000 0.000000
LeftFoot -8.245960 6.778748 -12.308751
LeftToeBase 22.807560 -0.000000 -0.000000
RightUpLeg -12.410556 6.085543 4.338224
RightLeg 127.640370 -0.000000 -0.000000
RightFoot 23.659211 -21.847423 22.113746
RightToeBase 17.091722 -0.000000 -0.000000
456
root 8.570799 32.052746 -3.419896 5.042791 26.385152 4.351217
Spine 1.561513 -5.567154 -3.757132
Head 15.139151 -13.981792 -0.607072
LeftShoulder -16.004906 -0.287029 28.617441
LeftArm -15.656289 -39.592365 -69.312580
LeftForeArm -4.133225 0.000000 91.164721
LeftHand 15.630508 -0.000000 18.651371
LeftHandThumb1 -26.253704 0.000000 33.147579
RightShoulder -24.252272 -26.061892 -22.586658
RightArm 7.883662 -30.523755 87.399711
RightForeArm -23.713130 -0.000000 102.936356
RightHand 17.564692 -0.000000 1.523691
RightHandThumb1 -24.326973 -0.000000 -32.862282
LeftUpLeg 2.862086 -17.416949 -10.672782
LeftLeg -2.973624 -0.000000 0.000000
LeftFoot -8.244532 6.801892 -12.325501
LeftToeBase 22.953867 -0.000000 -0.000000
RightUpLeg -12.259091 5.606349 4.435720
RightLeg 129.552647 -0.000000 -0.000000
RightFoot 23.369379 -22.555712 23.070612
RightToeBase 19.280427 -0.000000 -0.000000
457
root 8.584394 32.061023 -3.416022 5.011522 26.563354 4.269637
Spine 1.468774 -5.654689 -3.585769
Head 15.150797 -13.988510 -0.654820
LeftShoulder -16.020049 -0.288346 28.555903
LeftArm -15.565179 -39.435154 -69.415693
LeftForeArm -4.136569 -0.000000 91.093366
LeftHand 15.704360 0.000000 18.614643
LeftHandThumb1 -26.253704 0.000000 33.147579
RightShoulder -24.263186 -26.061493 -22.604277
RightArm 7.859967 -30.461780 87.385403
RightForeArm -23.684002 -0.000000 102.906452
RightHand 17.628203 -0.000000 1.598058
RightHandThumb1 -24.326973 -0.000000 -32.862282
LeftUpLeg 2.874909 -17.584791 -10.617201
LeftLeg -2.962884 -0.000000 0.000000
LeftFoot -8.211448 6.855186 -12.243105
LeftToeBase 22.897819 -0.000000 -0.000000
RightUpLeg -12.073965 5.101726 4.526187
RightLeg 131.321850 -0.000000 -0.000000
RightFoot 23.511364 -22.856111 23.461856
RightToeBase 18.988473 -0.000000 -0.000000
458
root 8.595529 32.068902 -3.411481 4.977807 26.713107 4.191397
Spine 1.384399 -5.700902 -3.435916
Head 15.140325 -14.024796 -0.682643
LeftShoulder -16.029913 -0.363437 28.507952
LeftArm -15.487942 -39.314165 -69.485523
LeftForeArm -4.040451 -0.000000 90.996060
LeftHand 15.702921 -0.000000 18.637439
LeftHandThumb1 -26.253704 0.000000 33.147579
RightShoulder -24.286870 -26.086923 -22.597106
RightArm 7.875182 -30.434995 87.355553
RightForeArm -23.671253 -0.000000 102.883296
RightHand 17.622115 -0.000000 1.520019
RightHandThumb1 -24.326973 -0.000000 -32.862282
LeftUpLeg 2.909935 -17.740706 -10.565487
LeftLeg -2.977970 -0.000000 0.000000
LeftFoot -8.140796 6.905579 -12.092830
LeftToeBase 22.711887 -0.000000 -0.000000
RightUpLeg -11.898293 4.593024 4.600644
RightLeg 132.920627 -0.000000 -0.000000
RightFoot 23.625162 -23.083940 23.777126
RightToeBase 19.414495 -0.000000 -0.000000
459
root 8.588519 32.076266 -3.404824 4.969038 26.683300 4.121501
Spine 1.298158 -5.567266 -3.410953
Head 15.083063 -14.067219 -0.543370
LeftShoulder -16.028747 -0.433216 28.561113
LeftArm -15.406689 -39.205145 -69.539208
LeftForeArm -3.984113 -0.000000 90.870113
LeftHand 15.769653 -0.000000 18.617222
LeftHandThumb1 -26.253704 0.000000 33.147579
RightShoulder -24.325768 -26.082457 -22.503882
RightArm 7.866404 -30.446399 87.372543
RightForeArm -23.802952 -0.000000 102.884989
RightHand 17.526390 -0.000000 1.371333
RightHandThumb1 -24.326973 -0.000000 -32.862282
LeftUpLeg 2.938607 -17.634825 -10.479308
LeftLeg -3.075197 -0.000000 0.000000
LeftFoot -8.058232 6.809761 -12.243333
LeftToeBase 22.494324 -0.000000 -0.000000
RightUpLeg -11.823853 4.242811 4.722069
RightLeg 134.372149 -0.000000 -0.000000
RightFoot 23.908705 -23.449834 23.918953
RightToeBase 20.678312 -0.000000 -0.000000
460
root 8.603607 32.083659 -3.398597 4.953929 26.860015 4.057174
Spine 1.186302 -5.650172 -3.264310
Head 15.077940 -14.059264 -0.554567
LeftShoulder -16.006397 -0.383569 28.495289
LeftArm -15.261501 -39.143905 -69.664612
LeftForeArm -3.958704 -0.000000 90.766380
LeftHand 15.891254 -0.000000 18.530861
LeftHandThumb1 -26.253704 0.000000 33.147579
RightShoulder -24.337350 -26.089342 -22.508645
RightArm 7.852946 -30.417276 87.351292
RightForeArm -23.851127 -0.000000 102.900129
RightHand 17.488746 -0.000000 1.349497
RightHandThumb1 -24.326973 -0.000000 -32.862282
LeftUpLeg 2.985842 -17.734171 -10.436977
LeftLeg -3.142102 -0.000000 0.000000
LeftFoot -7.961120 6.810057 -12.163535
LeftToeBase 22.514562 -0.000000 -0.000000
RightUpLeg -11.687706 3.663300 4.771407
RightLeg 135.567058 -0.000000 -0.000000
RightFoot 24.099312 -23.677627 24.103668
RightToeBase 20.418368 -0.000000 -0.000000
